<svg xmlns="http://www.w3.org/2000/svg" width="1788" height="720"><path fill="#FEFEFE" d="M142 337c148.611 1.18 148.611 1.18 174 16 3.167 2.164 6.09 4.506 9 7l1.785 1.352c9.064 7.06 15.296 17.221 19.707 27.695 5.977 15.201 7.145 31.129 5.227 47.328-1.967 12.318-7.662 24.503-15.094 34.5A148 148 0 0 1 333 475l-2.203 2.48c-9.046 9.644-19.785 15.42-31.899 20.293-3.015 1.17-3.015 1.17-5.898 3.227 12.997 22.31 26.008 44.61 39.188 66.813A5164 5164 0 0 1 348 594.625l1.837 3.128 1.663 2.849 1.469 2.51C354 605 354 605 354 606c-9.474.395-18.946.697-28.427.88-4.404.09-8.802.209-13.202.402-23.146.991-23.146.991-32.371-1.282-2.643-1.623-4.069-3.028-5.822-5.568-1.51-3.024-2.62-6.032-3.533-9.284-.905-3.015-2.407-5.552-4.008-8.25q-1.479-2.76-2.95-5.523a1264 1264 0 0 0-14.653-26.487c-4.39-7.73-8.722-15.49-13.034-23.263l-1.888-3.404-1.8-3.244-1.769-3.078C229 515 229 515 228.051 512.25c-.931-2.901-.931-2.901-4.051-6.249l-17-1v101h-65zm65 55q-.034 12.882-.052 25.764-.007 5.982-.023 11.962-.016 5.767-.02 11.535a1839 1839 0 0 1-.01 4.41q-.01 3.08-.009 6.157l-.006 3.546L207 458l1 1c1.348.103 2.702.138 4.054.145l2.612.02 2.854.003 2.936.01q3.093.007 6.186.007c3.119.002 6.237.02 9.356.04 17.463.417 17.463.417 33.94-4.538 5.368-3.323 9.025-7.219 12.167-12.648 3.518-8.018 3.74-16.447 2.895-25.039-1.197-5.88-3.418-10.66-7.125-15.375-3.936-4.13-8.562-6.635-13.875-8.625-3.507-.832-6.741-1.122-10.341-1.114h-3.154l-3.368.016-3.476.005c-3.658.005-7.316.018-10.974.03q-3.723.009-7.447.014-9.12.017-18.24.049"/><path fill="#23F478" d="M1516 384c5.35 2.867 10.037 6.398 14 11v2l2.21-.953c18.6-7.623 38.024-10.501 58.014-8.162 10.543 1.467 20.722 4.7 30.776 8.115l1.328-1.54c5.997-6.508 12.631-10.294 20.938-13.272 6.71-1.903 12.59-1.615 19.234.062 7.988 2.372 14.71 5.647 20.5 11.75 3.975 4.862 6.941 9.972 8.527 16.07 1.33 8.244 1.518 16.866-1.09 24.868-2.244 5.286-5.366 10-9.437 14.062-1.32.694-2.651 1.365-4 2l.61 1.86c.928 2.837 1.847 5.676 2.765 8.515l.96 2.926c3.163 9.817 5.05 19.404 5.665 29.699l.164 2.402c.662 19.06-4.285 37.812-12.883 54.685-9.212 17.309-22.715 32.344-39.38 42.796-17.315 10.176-36.295 15.936-56.38 16.473-20.744.155-39.838-4.67-58.021-14.731-6.733-3.889-12.76-8.364-18.5-13.625l-2.766-2.52c-13.917-13.275-24.004-29.704-29.642-48.113-5.226-18.72-6.142-38.418-1.71-57.379 2.03-7.774 4.464-15.406 7.118-22.988l-1.781-.754c-4.194-2.355-6.647-6.271-9.219-10.246-3.672-6.788-4.541-13.53-4.398-21.155.31-7.083 1.467-12.52 5.027-18.65 4.432-6.607 9.362-11.398 16.371-15.195 2.955-1.266 5.884-2.22 9-3l2.563-.687c8.535-1.095 15.45.51 23.437 3.687m60 86a210 210 0 0 0-6.312 4.25c-7.17 4.904-14.601 9.238-22.19 13.462-11.404 5.867-11.404 5.867-19.998 14.976l-1.406 2.261c-2.927 5.488-2.63 11.535-2.496 17.602.315 5.266 1.908 9.37 4.562 13.922 3.715 5.102 7.81 8.383 13.277 11.465 4.42 1.318 8 1.847 12.563 1.062 4.96-1.707 8.867-3.894 12.625-7.562 1.74-4.35 1.99-8.011 1.824-12.672-.262-2.973-.262-2.973-2.574-5.578L1563 521c-5.52-5.401-5.52-5.401-6.602-9.004-.273-1.933-.273-1.933-.398-4.996 4.195-2.757 7.543-3.844 12.536-4.161q4.357-.068 8.714-.089l3.027-.062c6.466-.034 11.744.824 17.723 3.312.557 2.85.734 4.234 0 7-2.065 2.775-4.321 5.196-6.738 7.668-3.075 3.17-5 5.344-6.137 9.644-.312 3.712-.312 3.712.875 7.25 2.875 4.943 6.459 7.967 11.375 10.813 4 .952 7.543 1.24 11.625.625 5.517-1.81 9.906-4.51 13.875-8.75 3.833-4.782 6.162-9.96 7.875-15.812.728-7.095.165-12.192-2.523-18.84-1.908-4.04-3.695-6.804-7.227-9.598-3.645-2.247-7.367-4.296-11.137-6.324-5.822-3.154-11.462-6.602-17.113-10.051l-3.031-1.84c-7.281-4.445-7.281-4.445-9.898-6.475L1578 470zM1051 384c5.878 3.114 10.495 7.149 15 12l3.563-1.25c19.127-6.277 38.993-10.067 59.059-6.251 9.595 2.03 19.007 4.619 28.378 7.501l2.375-3.125c4.517-5.226 9.955-8.5 16.398-10.914 7.038-2.11 13.082-2.802 20.29-1.34 8.204 2.177 14.703 5.593 20.937 11.379 4.95 5.63 8.467 11.635 10 19 1.308 7.347 1.207 13.844-.852 21.04-2.456 6.333-6.064 12.276-11.148 16.835l-2 2.125c.376 4.033 1.89 7.895 3.12 11.738 6.456 20.345 7.489 39.98 3.103 60.985-4.982 20.333-15.002 37.614-29.401 52.792-12.852 13.178-29.299 23.04-46.892 28.454-19.297 5.26-39.495 5.983-58.93 1.031-20.744-5.57-37.264-15.523-52.75-30.312-13.445-13.94-22.823-30.869-27.746-49.594-2.205-9.168-2.86-17.917-2.817-27.344l.018-3.9c.2-15.69 4.096-29.16 9.295-43.85l-2.273-1.707c-5.131-4.315-9.115-10.144-11.664-16.356-1.97-6.984-1.966-14.761-1.063-21.937 1.953-7.445 5.565-14.494 11-20 5.809-4.916 11.624-8.156 19-10l2.563-.687c8.537-1.095 15.446.514 23.437 3.687m60 86a210 210 0 0 0-6.312 4.25c-7.17 4.904-14.601 9.238-22.19 13.462-11.59 6.17-11.59 6.17-20.525 15.48-3.33 6.192-3.458 11.918-3.282 18.788.295 5.242 1.585 9.518 4.309 14.02 3.224 4.832 6.787 8.18 11.875 11 3.994 1.774 7.443 2.765 11.824 2.484 4.566-.96 8.456-2.87 12.301-5.484 2.492-2.675 3.624-4.638 4.59-8.137.561-3.148.768-5.748-.219-8.82-1.662-3.192-3.64-5.419-6.434-7.668-2.904-2.349-4.415-3.994-5.937-7.375-.5-2.625-.5-2.625 0-5 3.175-2.54 6.051-3.352 10-4 3.748-.238 7.495-.23 11.25-.25l3.027-.062c6.466-.034 11.744.824 17.723 3.312.393 2.695.565 4.378 0 7-2.019 2.971-4.48 5.45-7 8-2.653 2.801-4.741 5.189-5.937 8.938-.081 3.958.333 6.406 1.937 10.062 3.077 3.408 6.488 6.108 10.438 8.438 4.77 1.047 9.158 1.233 13.898-.09 4.896-1.947 8.598-4.558 12.164-8.43 3.578-4.575 6.01-9.902 7.242-15.59.67-6.053.381-12.195-1.683-17.953-2.717-5.307-6.302-8.837-11.059-12.375-2.988-1.835-6.075-3.45-9.187-5.062-8.495-4.518-16.555-9.51-24.54-14.874l-2.406-1.607-2.121-1.438L1113 470z"/><path fill="#FEFEFE" d="M526.113 397.887c7.663 3.82 14.546 8.336 20.887 14.113l2.926 2.645C562.28 426.189 570.803 439.91 576 456c2.972 10.27 5.123 20.634 5.133 31.36l.003 2.033q0 2.108-.006 4.215c-.005 2.15 0 4.3.007 6.45q0 2.058-.004 4.114l-.004 3.753C581 511 581 511 580 514l-149 1c2.519 14.069 2.519 14.069 9 26 5.127 5.716 10.71 9.596 18 12 8.184 2.472 15.586 2.68 23.938.875 6.003-1.652 11.237-3.883 16.062-7.875 2.339-2.838 4.197-5.802 6-9l2-3c2.675-.367 2.675-.367 6.115-.356l3.894-.01 4.23.038q2.163.005 4.327.006 4.54.007 9.081.04c3.874.029 7.747.04 11.621.044q4.471.008 8.944.026 2.14.008 4.283.015c2 .006 4.001.021 6.002.036l3.448.02c2.797.13 5.333.504 8.055 1.141-3.384 15.997-11.473 29.912-22.254 42.031-12.252 13.398-27.564 22.141-44.746 27.657-11.63 3.658-22.842 4.721-35 4.687l-2.208-.002c-11.648-.04-22.632-.844-33.792-4.373l-2.1-.65c-14.68-4.682-27.397-12.031-38.9-22.35l-1.953-1.738c-12.316-11.623-20.588-27.218-25.665-43.209-7.384-24.819-6.67-50.68-.757-75.74 3.911-13.48 10.35-26.547 19.375-37.313l2.148-2.602C401.658 408.031 416.451 398.904 433 393c30.12-10.028 64.275-8.752 93.113 4.887m-77.926 48.863c-7.218 5.235-11.57 11.27-15.242 19.344-1.297 3.678-1.297 3.678-1.945 10.906h82c0-8.176-.245-12.182-4-19-4.816-6.63-10.503-11.632-17.926-15.117-13.932-5.93-30.168-3.97-42.887 3.867M772 395c11.501 5.356 21.08 12.903 28.871 22.938C811.018 432.534 815.936 448.423 818 466c.252 4.779.254 9.543.227 14.327v4.144c.002 3.706-.01 7.411-.024 11.117-.013 3.89-.014 7.778-.016 11.667-.006 7.345-.023 14.69-.043 22.035-.027 9.939-.037 19.878-.049 29.817-.019 15.63-.059 31.262-.095 46.893h-65l-.148-26.52q-.06-9.393-.124-18.786-.086-12.157-.15-24.313-.05-9.628-.12-19.255-.04-5.093-.061-10.184c-.017-3.8-.046-7.601-.078-11.402l-.007-3.366c-.122-11.474-1.738-22.327-7.59-32.365-4.07-5.942-9.323-9.561-15.679-12.809-8.248-3.738-17.162-3.61-26.043-3-7.4 1.169-14.083 4.445-20 9-5.474 5.464-8.771 11.647-11 19-1.8 8.188-2.302 16.2-2.319 24.562l-.03 3.61c-.03 3.896-.048 7.792-.065 11.687q-.027 4.078-.059 8.155-.068 9.593-.116 19.187c-.043 8.006-.098 16.012-.153 24.018-.099 14.26-.177 28.52-.258 42.781h-65c-.824-4.942-1.141-9.461-1.127-14.426l-.005-2.527c-.004-2.786 0-5.573.003-8.36l-.006-6.002q-.005-8.145 0-16.29c.003-5.682 0-11.365 0-17.047q-.004-14.314.005-28.63.007-16.548-.002-33.097-.007-14.208-.003-28.418.003-8.486-.001-16.972-.004-7.978.005-15.956 0-2.928-.002-5.856-.002-3.996.006-7.993l-.007-2.34c.016-4.22.431-7.87 1.134-12.086h65v28h2l.766-1.738c4.091-7.497 11.708-12.698 18.802-17.154C714.532 384.704 746.58 383.812 772 395"/><path fill="#23F478" d="M1321 368h50v22l4.938 1c12.674 3.195 24.482 9.07 34.062 18l2.133 1.895c8.743 8.16 14.772 18.94 18.867 30.105 4 14.252 4 14.252 4 20h-60l-7-14c-3.614-3.948-6.371-5.954-11.312-7.812-8.188-2.324-15.615-2.519-23.981-.918-4.522 1.22-7.102 3.236-10.52 6.418-1.876 3.653-2.28 7.229-2.187 11.312.953 3.24 2.136 5.097 4.457 7.523 9.465 8.125 24.26 10.302 36.122 13.3 22.583 5.738 43.924 11.756 61.39 28.009 6.787 7.07 10.44 16.171 12.906 25.543 2.062 10.175 2.13 20.59-.785 30.598-4.181 11.614-9.863 20.825-19.09 29.027-10.651 8.943-22.942 14.312-36.379 17.555C1376 608 1376 608 1371 608v21q-10.44.037-20.88.055-3.555.008-7.11.02c-3.398.013-6.796.018-10.194.023l-3.232.015h-2.972l-2.632.007-1.98-.12-1-1a76 76 0 0 1-.098-4.691l.01-2.862.025-3.01.014-3.021q.018-3.708.049-7.416l-1.966-.36c-15.34-2.922-29.81-9.502-41.768-19.628L1275 585l-2.078-1.793c-9.071-8.374-15.184-19.14-18.988-30.789-1.383-5.063-2.548-10.174-2.934-15.418l1-1c1.994-.094 3.992-.117 5.989-.114h3.882l4.227.016 4.3.005q5.67.006 11.339.024 5.781.014 11.562.02 11.35.016 22.701.049l.783 2.27 1.053 2.988 1.033 2.957c1.655 4.074 3.724 7.013 7.131 9.785 5.787 3.516 11.015 5.84 17.793 6.203 11.45.306 11.45.306 22.207-3.203 2.95-1.543 2.95-1.543 5-4 2.03-3.703 3.022-6.89 2.938-11.125-1.166-3.573-2.189-6.3-4.938-8.875-7.62-4.597-15.536-7.315-24.125-9.437A1786.55 1786.55 0 0 0 1331 520c-42.169-10.68-42.169-10.68-58.25-25.626-6.933-7.231-11.28-15.709-13.75-25.375-2.037-11.815-1.532-23.518 2-35 4.247-11.07 10.502-19.705 19.54-27.293 10.146-8.05 22.725-14.11 35.46-16.707h5z"/><path fill="#23F478" d="M1355.388 208.62q3.01 1.039 6.01 2.107l3.306 1.15c3.56 1.24 7.115 2.494 10.671 3.748q3.738 1.306 7.477 2.61 7.54 2.634 15.074 5.28 9.267 3.256 18.543 6.485 7.8 2.714 15.596 5.438a9391 9391 0 0 0 27.798 9.671c21.253 7.356 42.485 14.763 63.674 22.302a3922 3922 0 0 0 36.67 12.847l1.932.666q10.326 3.558 20.658 7.097l6.762 2.323 3.168 1.08 2.872.988 2.516.86C1600 294 1600 294 1601 295c.1 2.234.128 4.47.13 6.707l.005 2.124q.004 3.49-.002 6.981l.003 4.832q.002 5.07-.006 10.138-.006 6.512.004 13.025.004 4.99 0 9.98 0 2.401.002 4.804.003 3.351-.007 6.702l-.002 3.86L1601 367l-1 1a70 70 0 0 1-4.52.114h-2.912l-3.166-.016-3.224-.005c-3.413-.005-6.827-.018-10.24-.03q-3.462-.008-6.924-.014c-5.672-.01-11.343-.03-17.014-.049v-42l-5-1a174 174 0 0 1-5.409-1.803l-3.233-1.13-3.495-1.231-3.667-1.284q-4.92-1.725-9.838-3.457-4.116-1.448-8.233-2.892a8232 8232 0 0 1-52.443-18.6 5238 5238 0 0 0-28.678-10.185l-3.417-1.202a9595 9595 0 0 0-17.263-6.053c-11.183-3.913-22.338-7.885-33.449-11.999q-4.623-1.698-9.248-3.391a699 699 0 0 1-5.806-2.173 676 676 0 0 0-7.997-2.963l-2.322-.91c-2.941-1.05-5.454-1.793-8.593-1.596-2.373.473-4.607 1.122-6.909 1.869l-2.886.926a572 572 0 0 0-10.087 3.484q-1.9.666-3.802 1.33a4737 4737 0 0 0-10.174 3.578q-5.35 1.882-10.701 3.757a15667 15667 0 0 0-55.647 19.649 9159 9159 0 0 1-31.508 11.128l-3.54 1.243-14.053 4.932c-11.1 3.895-22.195 7.798-33.243 11.84l-2.401.879q-5.36 1.963-10.71 3.954l-3.635 1.343-3.1 1.157c-2.513.8-2.513.8-5.513.8v42h-49v-73c7.567-3.153 14.96-6.133 22.703-8.715l2.981-1.006q3.15-1.063 6.3-2.12c5.61-1.883 11.213-3.781 16.817-5.679 1.127-.38 2.253-.762 3.414-1.155a2832 2832 0 0 0 30.223-10.45l2.439-.857q4.884-1.715 9.77-3.433c9.3-3.271 18.607-6.524 27.916-9.773l2.646-.923c15.752-5.497 31.52-10.947 47.291-16.389a16955 16955 0 0 0 59.545-20.656q2.363-.825 4.729-1.643c4.94-1.716 9.799-3.575 14.6-5.654 5.855-1.22 11.416.27 17.014 2.073"/><path fill="#FFF" d="M863 337a126 126 0 0 1 6.08-.114h3.944l4.292.016 4.368.005q5.758.006 11.516.024c4.602.012 9.205.017 13.807.023 6.997.01 13.995.029 20.993.046v53h44v55h-44c.062 16.334.062 16.334.16 32.668.048 6.665.093 13.33.111 19.995.015 5.375.05 10.75.097 16.125q.023 3.072.024 6.143c.002 2.875.03 5.749.062 8.624l-.015 2.548c.089 5.068 1.054 8.781 3.386 13.287 1.265 1.952 1.265 1.952 4.445 3.578 3.939 1.09 7.33 1.462 11.414 1.544l3.884.1 4.87.076L972 550v56l-22.875.25-7.097.11c-18.281.165-34.55-2.18-50.887-10.883-8.128-4.783-14.15-10.64-19.114-18.668-10.106-18.862-10.18-38.558-10.125-59.446l.005-6.275q.006-8.209.024-16.418.014-8.397.02-16.793.016-16.439.049-32.877h-21v-55h21l-.016-4.758q-.026-8.701-.039-17.404-.008-3.772-.02-7.546c-.013-3.606-.018-7.213-.023-10.82l-.015-3.43v-3.155l-.007-2.793L862 338z"/><path fill="#3BF587" d="M1673.668 583.422c4.309-.163 7.475.176 11.395 2.015 2.3 3.042 3.2 5.51 3.847 9.247.093 2.383-.145 3.965-.973 6.191C1686 604 1686 604 1683.876 605.938c-3.357 1.24-6.09 1.603-9.656 1.484-2.445-.465-3.719-1.133-5.657-2.672-3.877-4.16-3.877-4.16-4.562-6.75 0-3.415.466-5.953 2.023-9.008 2.2-3.141 3.832-4.744 7.645-5.57m-3.105 4.453c-1.52 1.35-1.52 1.35-2.563 3.125-.79 3.174-.776 5.825 0 9 1.853 2.765 1.853 2.765 5 4 2.848.649 5.165.747 8 0 3.24-2.405 3.24-2.405 5-6 .254-3.638.254-3.638-1-7-1.5-2.5-1.5-2.5-4-4-4.516-1.422-6.248-1.41-10.437.875"/><path fill="#6AF7A3" d="M1674 589c3.625.375 3.625.375 7 1 1.176 3.674 1.074 7.17 1 11h-4v-4h-3l-1 5-2-1a365 365 0 0 1-.125-4.875l-.07-2.742L1672 591zm2 2-1 3h3l-1-3z"/><path fill="#26FA76" d="M1666 600c2.962.613 4.38 1.254 7 3 2.696.419 5.3.397 8 0 1.73-1.479 1.73-1.479 3-3 2.188.313 2.188.313 4 1-4.75 4.875-4.75 4.875-7 6-3.061.429-5.943.471-9 0-2.58-1.403-3.96-2.803-6-5z"/></svg>